<svg xmlns="http://www.w3.org/2000/svg" version="1.1" xmlns:xlink="http://www.w3.org/1999/xlink"
    xmlns:svgjs="http://svgjs.dev/svgjs" width="1500" height="170" viewBox="0 0 1500 170">
    <g transform="matrix(1,0,0,1,-0.9090909090909918,-1.2362128251556754)">
        <svg viewBox="0 0 396 45" data-background-color="#ffffff"
            preserveAspectRatio="xMidYMid meet" height="170" width="1500"
            xmlns="http://www.w3.org/2000/svg" xmlns:xlink="http://www.w3.org/1999/xlink">
            <g id="tight-bounds" transform="matrix(1,0,0,1,0.2400000000000091,0.3272328066588557)">
                <svg viewBox="0 0 395.52 44.34553438668232" height="44.34553438668232"
                    width="395.52">
                    <g>
                        <svg viewBox="0 0 654.0285928061819 73.32940799999997"
                            height="44.34553438668232" width="395.52">
                            <g transform="matrix(1,0,0,1,258.50859280618204,6.849659679141261)">
                                <svg viewBox="0 0 395.5199999999999 59.63008864171745"
                                    height="59.63008864171745" width="395.5199999999999">
                                    <g id="textblocktransform">
                                        <svg viewBox="0 0 395.5199999999999 59.63008864171745"
                                            height="59.63008864171745" width="395.5199999999999"
                                            id="textblock">
                                            <g>
                                                <svg
                                                    viewBox="0 0 395.5199999999999 59.63008864171745"
                                                    height="59.63008864171745"
                                                    width="395.5199999999999">
                                                    <g transform="matrix(1,0,0,1,0,0)">
                                                        <svg width="395.5199999999999"
                                                            viewBox="1.89375 -37.8 257.33625 38.8"
                                                            height="59.63008864171745"
                                                            data-palette-color="#000000">
                                                            <path
                                                                d="M11.1-2.75L23.1-2.75 24.45-8.9Q25.05-9 25.4-8.97 25.75-8.95 26.25-8.75L26.25-8.75Q26.55-6.6 26.65-4.4 26.75-2.2 26.75 0L26.75 0 8.6 0Q7.2 0 5.28 0.08 3.35 0.15 1.95 0.25L1.95 0.25Q1.8-0.7 2.05-1.5L2.05-1.5Q3.15-1.75 4.13 -1.95 5.1-2.15 5.85-2.5L5.85-2.5 5.85-32.5 2-33.5Q1.85-34.45 2.25-35.25L2.25-35.25Q3.6-35.2 5.28-35.1 6.95-35 8.35-35L8.35-35Q9.8-35 11.8-35.1 13.8-35.2 15.2-35.25L15.2-35.25Q15.35-34.3 15.1-33.5L15.1-33.5Q14.1-33.4 13.1-33.23 12.1-33.05 11.1-32.5L11.1-32.5 11.1-2.75ZM36 0.85L36 0.85Q33 0.85 30.95-0.73 28.9-2.3 28.9-5.5L28.9-5.5Q28.9-8 30.12-9.6 31.35-11.2 33.42-12.08 35.5-12.95 38.05-13.25 40.6-13.55 43.25-13.5L43.25-13.5 43.3-17.9Q43.35-20.7 42.25-22.23 41.15-23.75 38.9-23.75L38.9-23.75Q37.65-23.75 36.5-23.58 35.35-23.4 34.2-23L34.2-23 33.55-17.7Q33.15-17.5 32.45-17.48 31.75-17.45 31.35-17.5L31.35-17.5Q30.9-19.15 30.6-20.8 30.3-22.45 30.35-24L30.35-24Q32.7-25.1 35.07-25.55 37.45-26 40.25-26L40.25-26Q43.05-26 44.77-25.1 46.5-24.2 47.32-22 48.15-19.8 48.15-15.85L48.15-15.85 48.15-2.45Q49-2.05 49.9-1.88 50.8-1.7 51.65-1.45L51.65-1.45Q51.8-0.5 51.4 0.3L51.4 0.3Q50.6 0.45 49.47 0.55 48.35 0.65 47.2 0.65L47.2 0.65Q45.55 0.65 44.35 0.35L44.35 0.35 43.65-2.25 43.45-2.25Q42.2-0.95 40.35-0.05 38.5 0.85 36 0.85ZM37.9-1.9L37.9-1.9Q39.3-1.9 40.9-2.78 42.5-3.65 43.25-4.75L43.25-4.75 43.25-11.5Q38.1-11.5 36-10.28 33.9-9.05 33.9-6L33.9-6Q33.9-3.95 35-2.93 36.1-1.9 37.9-1.9ZM57.15-7.5L57.65-2.2Q58.7-1.7 59.77-1.5 60.85-1.3 62.2-1.3L62.2-1.3Q64.25-1.3 65.85-2.2 67.45-3.1 67.45-5.1L67.45-5.1Q67.45-6.15 66.87-7.05 66.3-7.95 64.87-8.9 63.45-9.85 60.8-11.05L60.8-11.05Q57.9-12.4 56.3-14.18 54.7-15.95 54.7-19.1L54.7-19.1Q54.7-21.65 55.97-23.13 57.25-24.6 59.27-25.25 61.3-25.9 63.55-25.9L63.55-25.9Q65.5-25.9 67.42-25.53 69.35-25.15 70.85-24.5L70.85-24.5Q70.85-24.25 70.87-23.95 70.9-23.65 70.9-23.4L70.9-23.4Q70.9-20.35 69.95-17.65L69.95-17.65Q69.75-17.6 69.57-17.57 69.4-17.55 69.2-17.55L69.2-17.55Q68.45-17.55 67.7-17.85L67.7-17.85 66.9-23.25Q66.25-23.45 65.4-23.58 64.55-23.7 63.7-23.7L63.7-23.7Q62.55-23.7 61.42-23.38 60.3-23.05 59.57-22.28 58.85-21.5 58.85-20.1L58.85-20.1Q58.85-19.15 59.27-18.3 59.7-17.45 60.97-16.53 62.25-15.6 64.8-14.35L64.8-14.35Q68.8-12.45 70.42-10.68 72.05-8.9 72.05-6.25L72.05-6.25Q72.05-3.7 70.7-2.1 69.35-0.5 67.17 0.25 65 1 62.55 1L62.55 1Q60.2 1 58.17 0.63 56.15 0.25 54.1-1L54.1-1 54.1-1.85Q54.1-3.2 54.27-4.63 54.45-6.05 55-7.7L55-7.7Q55.3-7.75 55.5-7.75L55.5-7.75Q56.4-7.75 57.15-7.5L57.15-7.5ZM82.99-37.25L82.99-22.25 83.24-22.25Q85.49-24.3 87.62-25.15 89.74-26 91.44-26L91.44-26Q95.54-26 97.42-23.85 99.29-21.7 99.29-18.2L99.29-18.2 99.29-2.5 102.89-1.5Q103.04-0.55 102.64 0.25L102.64 0.25Q101.29 0.15 99.74 0.08 98.19 0 96.79 0L96.79 0Q95.39 0 93.74 0.08 92.09 0.15 90.69 0.25L90.69 0.25Q90.54-0.7 90.79-1.5L90.79-1.5Q91.69-1.7 92.59-1.93 93.49-2.15 94.29-2.5L94.29-2.5 94.29-17.45Q94.29-19.55 93.64-20.65 92.99-21.75 91.89-22.13 90.79-22.5 89.44-22.5L89.44-22.5Q87.84-22.5 86.12-21.7 84.39-20.9 83.24-19.6L83.24-19.6 83.24-2.5 86.59-1.5Q86.74-0.55 86.34 0.25L86.34 0.25Q84.99 0.15 83.57 0.08 82.14 0 80.74 0L80.74 0Q79.34 0 77.69 0.08 76.04 0.15 74.64 0.25L74.64 0.25Q74.49-0.7 74.74-1.5L74.74-1.5Q75.69-1.75 76.62-1.95 77.54-2.15 78.24-2.5L78.24-2.5 78.24-34.3 74.09-34.7Q73.94-35.7 74.34-36.45L74.34-36.45Q77.94-37 81.09-37.8L81.09-37.8Q81.59-37.75 82.04-37.63 82.49-37.5 82.99-37.25L82.99-37.25ZM128.44 0.95L128.44 0.95Q125.59 0.95 122.81 0.55 120.04 0.15 117.99-0.8L117.99-0.8Q117.99-2.95 118.31-5.13 118.64-7.3 119.29-9.5L119.29-9.5Q119.44-9.5 119.59-9.53 119.74-9.55 119.94-9.55L119.94-9.55Q120.84-9.55 121.49-9.25L121.49-9.25 122.29-2.6Q123.24-2.4 124.61-2.13 125.99-1.85 127.69-1.85L127.69-1.85Q129.49-1.85 131.39-2.3 133.29-2.75 134.59-3.93 135.89-5.1 135.89-7.3L135.89-7.3Q135.89-8.6 135.61-9.65 135.34-10.7 134.39-11.7 133.44-12.7 131.49-13.83 129.54-14.95 126.19-16.4L126.19-16.4Q122.59-18 120.86-19.6 119.14-21.2 118.64-22.98 118.14-24.75 118.14-26.8L118.14-26.8Q118.14-29.95 119.96-31.93 121.79-33.9 124.74-34.85 127.69-35.8 130.99-35.8L130.99-35.8Q133.19-35.8 135.39-35.43 137.59-35.05 139.49-34.3L139.49-34.3Q139.59-32 139.11-29.93 138.64-27.85 137.94-25.85L137.94-25.85Q137.79-25.8 137.61-25.8 137.44-25.8 137.29-25.8L137.29-25.8Q136.44-25.8 135.74-26.1L135.74-26.1 135.19-32.75Q134.14-33.05 132.99-33.23 131.84-33.4 130.69-33.4L130.69-33.4Q128.74-33.4 126.94-32.83 125.14-32.25 124.01-31 122.89-29.75 122.89-27.65L122.89-27.65Q122.89-26.25 123.39-25.13 123.89-24 125.41-22.93 126.94-21.85 130.04-20.45L130.04-20.45Q133.94-18.75 136.39-17.25 138.84-15.75 139.99-13.8 141.14-11.85 141.14-8.7L141.14-8.7Q141.14-6.25 140.04-4.42 138.94-2.6 137.09-1.43 135.24-0.25 132.99 0.35 130.74 0.95 128.44 0.95ZM152.94 0.8L152.94 0.8Q151.34 0.8 150.04 0.2 148.74-0.4 148.01-1.88 147.29-3.35 147.29-5.95L147.29-5.95 147.29-21.9 143.79-21.9Q143.49-22.45 143.46-23.03 143.44-23.6 143.54-24.15L143.54-24.15Q145.64-24.15 146.69-24.7 147.74-25.25 148.31-26.6 148.89-27.95 149.54-30.25L149.54-30.25 152.19-30.25 152.19-24.65 157.44-24.65Q158.14-23.2 157.44-21.9L157.44-21.9 152.19-21.9 152.19-7.2Q152.19-4.9 152.41-3.73 152.64-2.55 153.19-2.13 153.74-1.7 154.69-1.7L154.69-1.7Q155.49-1.7 156.24-2 156.99-2.3 157.69-2.7L157.69-2.7Q158.39-2.25 158.44-1.2L158.44-1.2Q157.89-0.55 156.44 0.13 154.99 0.8 152.94 0.8ZM184.08-24.95L184.08-2.4Q184.93-1.9 185.83-1.75 186.73-1.6 187.58-1.4L187.58-1.4Q187.73-0.5 187.33 0.35L187.33 0.35Q186.53 0.5 185.46 0.6 184.38 0.7 183.23 0.7L183.23 0.7Q181.63 0.7 180.43 0.4L180.43 0.4 179.58-3.3 179.33-3.3Q176.78-1 174.61-0.1 172.43 0.8 169.88 0.8L169.88 0.8Q166.28 0.8 164.71-1.2 163.13-3.2 163.13-6.7L163.13-6.7 163.13-22 159.48-22.4Q159.33-23.4 159.73-24.15L159.73-24.15Q161.53-24.4 163.11-24.75 164.68-25.1 166.23-25.5L166.23-25.5Q166.73-25.45 167.18-25.33 167.63-25.2 168.13-24.95L168.13-24.95 168.13-7.45Q168.13-5.35 168.76-4.35 169.38-3.35 170.43-3.03 171.48-2.7 172.83-2.7L172.83-2.7Q174.43-2.7 176.18-3.65 177.93-4.6 179.08-5.9L179.08-5.9 179.08-22 175.43-22.4Q175.28-23.4 175.68-24.15L175.68-24.15Q177.48-24.4 179.06-24.75 180.63-25.1 182.18-25.5L182.18-25.5Q182.68-25.45 183.13-25.33 183.58-25.2 184.08-24.95L184.08-24.95ZM200.63 1L200.63 1Q197.83 1 195.51-0.68 193.18-2.35 191.81-5.3 190.43-8.25 190.43-12.05L190.43-12.05Q190.43-16.4 191.98-19.5 193.53-22.6 196.36-24.28 199.18-25.95 203.03-25.95L203.03-25.95Q204.43-25.95 205.86-25.6 207.28-25.25 208.38-24.7L208.38-24.7 208.53-24.7 208.53-34.3 204.38-34.7Q204.23-35.7 204.63-36.45L204.63-36.45Q208.23-37 211.38-37.8L211.38-37.8Q212.33-37.75 213.38-37.25L213.38-37.25 213.38-2.4Q213.83-2 214.88-1.75 215.93-1.5 216.88-1.4L216.88-1.4Q217.03-0.45 216.63 0.35L216.63 0.35Q215.83 0.5 214.71 0.6 213.58 0.7 212.43 0.7L212.43 0.7Q210.78 0.7 209.58 0.4L209.58 0.4Q209.18-0.25 208.96-0.9 208.73-1.55 208.63-2.25L208.63-2.25 208.38-2.25Q206.28-0.45 204.51 0.28 202.73 1 200.63 1ZM202.68-1.9L202.68-1.9Q204.63-1.9 206.03-2.73 207.43-3.55 208.38-4.55L208.38-4.55 208.38-21.95Q207.43-22.8 206.16-23.18 204.88-23.55 203.43-23.55L203.43-23.55Q199.53-23.55 197.63-20.55 195.73-17.55 195.73-12.5L195.73-12.5Q195.73-7.35 197.51-4.63 199.28-1.9 202.68-1.9ZM227.93-24.95L227.93-2.5 231.28-1.5Q231.43-0.55 231.03 0.25L231.03 0.25Q229.68 0.15 228.25 0.08 226.83 0 225.43 0L225.43 0Q224.03 0 222.38 0.08 220.73 0.15 219.33 0.25L219.33 0.25Q219.18-0.7 219.43-1.5L219.43-1.5Q220.38-1.75 221.3-1.95 222.23-2.15 222.93-2.5L222.93-2.5 222.93-22 218.78-22.4Q218.63-23.4 219.03-24.15L219.03-24.15Q220.83-24.4 222.65-24.75 224.48-25.1 226.03-25.5L226.03-25.5Q226.53-25.45 226.98-25.33 227.43-25.2 227.93-24.95L227.93-24.95ZM224.58-30.05L224.58-30.05Q223.73-30.05 223.03-30.6 222.33-31.15 221.93-31.95 221.53-32.75 221.53-33.45L221.53-33.45Q221.53-34.1 222.08-34.77 222.63-35.45 223.45-35.93 224.28-36.4 225.08-36.4L225.08-36.4Q225.98-36.4 226.68-35.83 227.38-35.25 227.75-34.48 228.13-33.7 228.13-33L228.13-33Q228.13-32.35 227.6-31.65 227.08-30.95 226.25-30.5 225.43-30.05 224.58-30.05ZM234.03-12.5L234.03-12.5Q234.03-16.4 235.55-19.45 237.08-22.5 239.93-24.25 242.78-26 246.63-26L246.63-26Q250.53-26 253.35-24.25 256.18-22.5 257.7-19.45 259.23-16.4 259.23-12.5L259.23-12.5Q259.23-8.5 257.7-5.45 256.18-2.4 253.35-0.7 250.53 1 246.63 1L246.63 1Q242.78 1 239.93-0.7 237.08-2.4 235.55-5.45 234.03-8.5 234.03-12.5ZM253.83-11.8L253.83-11.8Q253.83-15.15 253.08-17.88 252.33-20.6 250.73-22.23 249.13-23.85 246.53-23.85L246.53-23.85Q243.88-23.85 242.3-22.25 240.73-20.65 240.08-18 239.43-15.35 239.43-12.15L239.43-12.15Q239.43-9.25 240.18-6.73 240.93-4.2 242.55-2.68 244.18-1.15 246.73-1.15L246.73-1.15Q249.43-1.15 250.98-2.65 252.53-4.15 253.18-6.6 253.83-9.05 253.83-11.8Z"
                                                                opacity="1"
                                                                transform="matrix(1,0,0,1,0,0)"
                                                                fill="#000000"
                                                                class="wordmark-text-0"
                                                                data-fill-palette-color="primary"
                                                                id="text-0"></path>
                                                        </svg>
                                                    </g>
                                                </svg>
                                            </g>
                                        </svg>
                                    </g>
                                </svg>
                            </g>
                            <g>
                                <svg viewBox="0 0 244.43135999999996 73.32940799999997"
                                    height="73.32940799999997" width="244.43135999999996">
                                    <g>
                                        <svg xmlns="http://www.w3.org/2000/svg"
                                            xmlns:xlink="http://www.w3.org/1999/xlink" version="1.1"
                                            x="0" y="0" viewBox="12.6 60 82 24.599999999999994"
                                            style="enable-background:new 0 0 108.7 109;"
                                            xml:space="preserve" id="icon-0"
                                            width="244.43135999999996" height="73.32940799999997"
                                            class="icon-icon-0" data-fill-palette-color="accent"><g fill="#000000" data-fill-palette-color="accent"><g fill="#000000" data-fill-palette-color="accent"><path d="M53.6 70.4C38.7 70.4 24.8 66.6 12.6 60 23.4 70 37.8 76.1 53.6 76.1S83.9 70 94.6 60C82.4 66.6 68.5 70.4 53.6 70.4" fill="#000000" data-fill-palette-color="accent"></path><polygon points="55.3,73.6 53.6,84.6 51.9,73.6   " fill="#000000" data-fill-palette-color="accent"></polygon><polygon points="61.6,73 63,84 58.4,73.4   " fill="#000000" data-fill-palette-color="accent"></polygon><polygon points="67.8,71.8 72.1,82.5 64.6,72.5   " fill="#000000" data-fill-palette-color="accent"></polygon><polygon points="73.5,69.9 80.6,79.9 70.6,71   " fill="#000000" data-fill-palette-color="accent"></polygon><polygon points="48.9,73.4 44.3,84 45.6,73   " fill="#000000" data-fill-palette-color="accent"></polygon><polygon points="42.6,72.5 35.2,82.5 39.5,71.8   " fill="#000000" data-fill-palette-color="accent"></polygon><polygon points="36.7,71 26.7,79.9 33.8,69.9   " fill="#000000" data-fill-palette-color="accent"></polygon><polygon points="31.3,68.8 19,76.5 28.7,67.4   " fill="#000000" data-fill-palette-color="accent"></polygon><polygon points="78.5,67.4 88.3,76.5 76,68.8   " fill="#000000" data-fill-palette-color="accent"></polygon></g></g></svg>
                                    </g>
                                </svg>
                            </g>
                        </svg>
                    </g>
                    <defs></defs>
                </svg>
                <rect width="395.52" height="44.34553438668232" fill="none" stroke="none"
                    visibility="hidden"></rect>
            </g>
        </svg>
    </g>
</svg>